<svg width="52" height="51" viewBox="0 0 52 51" fill="none" xmlns="http://www.w3.org/2000/svg">
<path d="M48.1414 16.322C48.0454 16.3789 47.9533 16.4452 47.8663 16.5207C47.0866 17.1976 47.0137 18.3665 47.7035 19.1315C48.3932 19.8966 49.5844 19.9681 50.3641 19.2912C51.1437 18.6144 51.2166 17.4455 50.5268 16.6804C50.4311 16.5742 50.3257 16.4814 50.213 16.402C49.152 13.7355 47.6026 11.2039 45.5571 8.93498C36.2342 -1.40596 20.1337 -2.37254 9.59572 6.77606C-0.94228 15.9247 -1.92728 31.7241 7.39566 42.065C16.7186 52.406 32.8191 53.3725 43.3571 44.2239C45.6229 42.2568 47.4472 39.9822 48.8222 37.5205C49.1697 37.4692 49.5066 37.3222 49.7893 37.0767C50.569 36.3999 50.6419 35.231 49.9521 34.4659C49.2624 33.7008 48.0712 33.6293 47.2915 34.3062C46.5405 34.9582 46.4453 36.0668 47.0559 36.8312C45.7963 39.034 44.1449 41.0705 42.1082 42.8387C32.3498 51.3104 17.4405 50.4154 8.80732 40.8395C0.174133 31.2636 1.08626 16.6331 10.8446 8.16133C20.603 -0.310424 35.5123 0.584646 44.1455 10.1605C45.846 12.0468 47.1762 14.1292 48.1414 16.322Z" stroke="#F79236" stroke-width="0.5"/>
<path d="M19.174 41.6015C19.1601 41.7137 19.1363 41.8224 19.1034 41.9267C20.7095 42.6279 22.4477 43.1093 24.2838 43.328C34.2003 44.5093 43.215 37.5782 44.4188 27.8472C45.6225 18.1161 38.5594 9.26989 28.6429 8.08865C18.7264 6.90741 9.71162 13.8384 8.50788 23.5695C8.26969 25.495 8.35517 27.3858 8.72237 29.1895C8.79299 29.19 8.8643 29.1945 8.93606 29.2031C9.96943 29.3261 10.7055 30.248 10.58 31.262C10.4546 32.2761 9.51518 32.9983 8.48181 32.8752C7.44844 32.7522 6.71241 31.8303 6.83785 30.8163C6.86448 30.601 6.9278 30.3989 7.02091 30.2152C6.49368 28.026 6.34445 25.71 6.63679 23.3466C7.96598 12.6015 17.9201 4.94822 28.87 6.25255C39.8199 7.55688 47.619 17.3249 46.2899 28.07C44.9607 38.8152 35.0065 46.4685 24.0566 45.1641C21.6997 44.8834 19.4887 44.2105 17.4833 43.2201C17.3503 43.2325 17.2139 43.2311 17.0758 43.2147C16.0424 43.0916 15.3064 42.1698 15.4319 41.1557C15.5573 40.1417 16.4967 39.4194 17.5301 39.5425C18.5634 39.6656 19.2995 40.5874 19.174 41.6015Z" stroke="#F79236" stroke-width="0.5"/>
<path d="M25.5963 13.4418C25.563 13.3508 25.5374 13.2588 25.5192 13.1667C24.3901 13.2493 23.2536 13.4813 22.1361 13.8752C15.4811 16.2206 12.0236 23.4161 14.4138 29.9467C16.8039 36.4774 24.1365 39.8702 30.7916 37.5247C37.4467 35.1793 40.9041 27.9838 38.514 21.4532C38.0712 20.2435 37.4589 19.1415 36.7128 18.1636C36.663 18.1861 36.6118 18.2067 36.5593 18.2252C35.5796 18.5705 34.5002 18.071 34.1484 17.1096C33.7965 16.1483 34.3055 15.089 35.2852 14.7438C36.2649 14.3985 37.3443 14.8979 37.6961 15.8593C37.778 16.083 37.8133 16.312 37.8068 16.5361C38.852 17.7818 39.7002 19.2222 40.2879 20.828C43.0298 28.32 39.0634 36.5747 31.4287 39.2654C23.7939 41.9561 15.3818 38.0639 12.6399 30.5719C9.89789 23.0799 13.8643 14.8252 21.4991 12.1344C23.0904 11.5736 24.7155 11.2988 26.316 11.2829C26.4429 11.199 26.5824 11.129 26.7331 11.0759C27.7128 10.7307 28.7922 11.2301 29.1441 12.1915C29.4959 13.1528 28.987 14.2121 28.0073 14.5574C27.0276 14.9026 25.9481 14.4032 25.5963 13.4418Z" stroke="#F79236" stroke-width="0.5"/>
</svg>
